<svg width="32" height="32" viewBox="0 0 32 32" fill="none" xmlns="http://www.w3.org/2000/svg">
<path d="M16 4C9.37188 4 4 9.37188 4 16C4 22.6281 9.37188 28 16 28C22.6281 28 28 22.6281 28 16C28 9.37188 22.6281 4 16 4ZM16 10C16.8283 10 17.5 10.6717 17.5 11.5C17.5 12.3283 16.8283 13 16 13C15.1717 13 14.5 12.3297 14.5 11.5C14.5 10.6703 15.1703 10 16 10ZM17.875 22H14.125C13.5063 22 13 21.4984 13 20.875C13 20.2516 13.5039 19.75 14.125 19.75H14.875V16.75H14.5C13.8789 16.75 13.375 16.2461 13.375 15.625C13.375 15.0039 13.8813 14.5 14.5 14.5H16C16.6211 14.5 17.125 15.0039 17.125 15.625V19.75H17.875C18.4961 19.75 19 20.2539 19 20.875C19 21.4961 18.4984 22 17.875 22Z" fill="#12586E"/>
</svg>
