<?xml version="1.0" encoding="utf-8"?>
<!-- Generator: Adobe Illustrator 19.2.1, SVG Export Plug-In . SVG Version: 6.00 Build 0)  -->
<svg version="1.1" id="Layer_1" xmlns="http://www.w3.org/2000/svg" xmlns:xlink="http://www.w3.org/1999/xlink" x="0px" y="0px"
	 width="32px" height="32px" viewBox="0 0 32 32" style="enable-background:new 0 0 32 32;" xml:space="preserve">
<style type="text/css">
	.st0{fill:#12586E;}
	.st1{fill:none;}
	.st2{fill:#767677;}
</style>
<g>
	<path class="st1" d="M0,0h32v32H0V0z"/>
	<path class="st0" d="M17.3,4c-6.6,0-12,5.4-12,12h-4l5.2,5.2l0.1,0.2L12,16H8c0-5.2,4.2-9.3,9.3-9.3s9.3,4.2,9.3,9.3
		s-4.2,9.3-9.3,9.3c-2.6,0-4.9-1.1-6.6-2.7l-1.9,1.9C11,26.7,14,28,17.3,28c6.6,0,12-5.4,12-12S24,4,17.3,4z M16,10.7v6.7l5.7,3.4
		l1-1.6L18,16.3v-5.7H16z"/>
</g>
</svg>
