<svg width="32" height="32" viewBox="0 0 32 32" fill="none" xmlns="http://www.w3.org/2000/svg">
<path d="M17.5 5.5C17.5 4.67031 16.8297 4 16 4C15.1703 4 14.5 4.67031 14.5 5.5V16.8766L11.0594 13.4359C10.4734 12.85 9.52188 12.85 8.93594 13.4359C8.35 14.0219 8.35 14.9734 8.93594 15.5594L14.9359 21.5594C15.5219 22.1453 16.4734 22.1453 17.0594 21.5594L23.0594 15.5594C23.6453 14.9734 23.6453 14.0219 23.0594 13.4359C22.4734 12.85 21.5219 12.85 20.9359 13.4359L17.5 16.8766V5.5ZM7 20.5C5.34531 20.5 4 21.8453 4 23.5V25C4 26.6547 5.34531 28 7 28H25C26.6547 28 28 26.6547 28 25V23.5C28 21.8453 26.6547 20.5 25 20.5H20.2422L18.1188 22.6234C16.9469 23.7953 15.0484 23.7953 13.8766 22.6234L11.7578 20.5H7ZM24.25 23.125C24.5484 23.125 24.8345 23.2435 25.0455 23.4545C25.2565 23.6655 25.375 23.9516 25.375 24.25C25.375 24.5484 25.2565 24.8345 25.0455 25.0455C24.8345 25.2565 24.5484 25.375 24.25 25.375C23.9516 25.375 23.6655 25.2565 23.4545 25.0455C23.2435 24.8345 23.125 24.5484 23.125 24.25C23.125 23.9516 23.2435 23.6655 23.4545 23.4545C23.6655 23.2435 23.9516 23.125 24.25 23.125Z" fill="#12586E"/>
</svg>
