<svg xmlns="http://www.w3.org/2000/svg" viewBox="0 0 60 60"><defs><style>.cls-1{fill:#767677;}.cls-2{fill:#ffe082;}.cls-3{fill:#546e7a;}</style></defs><title>smiley-frown</title><g id="mobile"><g id="artwork-3" data-name="artwork"><polyline class="cls-1" points="7.85 34.2 7.86 34.19 8.43 34.77 7.85 34.2"/><path class="cls-2" d="M57.93,22.23A29,29,0,1,0,37.78,57.94,29,29,0,0,0,57.93,22.23ZM37.06,16.33A3.5,3.5,0,0,1,38,16.2a4.74,4.74,0,0,1,4.27,3.7c.71,2.56-.44,5.14-2.58,5.73a3.58,3.58,0,0,1-.92.13,4.75,4.75,0,0,1-4.27-3.7C33.77,19.49,34.91,16.93,37.06,16.33ZM16.89,22a3.6,3.6,0,0,1,.92-.13,4.76,4.76,0,0,1,4.27,3.7c.71,2.56-.45,5.14-2.59,5.73a3.71,3.71,0,0,1-.92.13,4.72,4.72,0,0,1-4.25-3.7C13.59,25.11,14.75,22.55,16.89,22ZM39.32,46.14a28.18,28.18,0,0,1-10-2.11A24,24,0,0,0,21,42.13c-3.92,0-5.08,1.9-6.69,1.9-1.21,0-1.21-.29-1.21-1.44,0-.77,1.88-2.95,7.07-2.95a32.56,32.56,0,0,1,10.45,2.08A26,26,0,0,0,39,43.48c3.93,0,5.06-1.75,6.67-1.75,1.21,0,1.21.37,1.21,1.52C46.91,44,44.49,46.14,39.32,46.14Z"/><path class="cls-3" d="M46.91,43.24c0,.78-2.42,2.9-7.59,2.9a28.18,28.18,0,0,1-10-2.11A24,24,0,0,0,21,42.13c-3.92,0-5.08,1.9-6.69,1.9-1.21,0-1.21-.29-1.21-1.44,0-.77,1.88-2.95,7.07-2.95a32.56,32.56,0,0,1,10.45,2.08A26,26,0,0,0,39,43.48c3.93,0,5.06-1.75,6.67-1.75C46.91,41.73,46.91,42.1,46.91,43.24Z"/><path class="cls-3" d="M39.66,25.64a3.58,3.58,0,0,1-.92.13,4.75,4.75,0,0,1-4.27-3.7c-.71-2.58.44-5.14,2.58-5.73A3.5,3.5,0,0,1,38,16.2a4.74,4.74,0,0,1,4.27,3.7C42.95,22.47,41.8,25,39.66,25.64Z"/><path class="cls-3" d="M19.48,31.26a3.71,3.71,0,0,1-.92.13,4.73,4.73,0,0,1-4.25-3.7c-.73-2.58.43-5.14,2.58-5.74a3.56,3.56,0,0,1,.92-.13,4.76,4.76,0,0,1,4.27,3.7C22.79,28.09,21.62,30.67,19.48,31.26Z"/></g></g></svg>