<svg width="150" height="28" viewBox="0 0 199 38" xmlns="http://www.w3.org/2000/svg" class="cardpointe-logo"><g fill="none" fill-rule="evenodd"><path d="M35.8715 18.4753c0-1.4276.2328-2.7713.7024-4.0384.4703-1.2645 1.1496-2.3665 2.0358-3.3074.8876-.9362 1.9641-1.6805 3.2331-2.2328 1.2656-.5523 2.7104-.8248 4.3329-.8248 1.068 0 2.0437.0943 2.9266.2817.8922.1854 1.7512.456 2.591.8085l-1.18 4.4702c-.5307-.2018-1.1171-.3774-1.7513-.5307-.6354-.148-1.3465-.222-2.1253-.222-1.6776 0-2.9266.5155-3.7498 1.5383-.8272 1.0273-1.2371 2.3789-1.2371 4.0574 0 1.7801.3893 3.152 1.1601 4.1329.7755.9755 2.1254 1.4636 4.0523 1.4636.6826 0 1.4176-.061 2.205-.186.7867-.1285 1.5057-.3257 2.1677-.6041l.7994 4.581c-.658.281-1.486.5175-2.4743.7154-.987.205-2.0795.2994-3.2682.2994-1.8268 0-3.4016-.268-4.7176-.8045-1.3174-.5386-2.402-1.2724-3.253-2.2001-.8471-.9245-1.4693-2.0193-1.8633-3.2844-.3934-1.2651-.5864-2.6397-.5864-4.1132M61.5792 24.4487c.5579 0 1.0886-.0125 1.5947-.0413.5061-.0197.9114-.0583 1.2165-.1068v-4.2481c-.2248-.0505-.5665-.1035-1.0242-.1494a10.6984 10.6984 0 00-1.2563-.0754c-.5307 0-1.0315.0315-1.5018.0944-.4663.0649-.8802.1834-1.2371.3577-.3536.1736-.6308.4134-.8351.7148-.2004.2975-.3052.6735-.3052 1.1204 0 .8812.2972 1.4833.8955 1.826.5944.3354 1.413.5077 2.453.5077m-.457-16.3767c1.6742 0 3.0672.1854 4.1843.5621 1.1117.378 2.0072.9133 2.6779 1.6196.6706.6978 1.1489 1.5456 1.4301 2.55.2766.999.4173 2.1175.4173 3.3426v11.6464c-.8106.1723-1.9436.38-3.3857.6185-1.4454.2371-3.196.355-5.2476.355-1.2929 0-2.4663-.1113-3.517-.3354-1.0534-.2273-1.9608-.5968-2.7197-1.106-.7588-.5168-1.3459-1.1884-1.7512-2.012-.4053-.828-.6056-1.8397-.6056-3.0452 0-1.1505.2322-2.128.6978-2.9273.4697-.8065 1.1011-1.44 1.8839-1.9177.7867-.4737 1.6868-.821 2.703-1.0306 1.011-.2142 2.0677-.321 3.1562-.321.7343 0 1.389.0367 1.9588.0917.5705.0675 1.0322.1468 1.3857.2457v-.5274c0-.9474-.2885-1.7133-.8716-2.2879-.585-.5798-1.598-.8648-3.044-.8648-.9639 0-1.9144.0714-2.8504.205-.94.141-3.176.3335-3.8632.5832l.7064-4.5043c.3257-.1049.743-.2117 1.2332-.3224a23.3046 23.3046 0 011.6185-.3014 37.457 37.457 0 011.8427-.2253c.6474-.0584 1.3015-.0911 1.9602-.0911M83.212 13.5532c-.5107-.1225-.1532-.2575-.8311-.3944-.6912-.1336-1.4262-.205-2.2122-.205-.3542 0-.7755.0327-1.2696.0943-.4982.0635-.8717.133-1.1244.207v15.0991h-5.6702V9.6504c1.0163-.3538 2.2169-.6827 3.5986-.9959 1.381-.3132 2.9227-.473 4.6175-.473.309 0 .6746.0222 1.1084.057.4292.0386.859.0871 1.2882.15.4338.0642.8643.1402 1.2948.2267.4285.0871.798.1946 1.1032.317l-1.9032 4.621zM90.227 18.323c0 1.7297.3933 3.1233 1.1807 4.1709.7873 1.0542 1.9515 1.5777 3.5017 1.5777.5061 0 .9758-.0197 1.4016-.0603.4345-.0367.7867-.0754 1.068-.1258V13.704c-.3582-.2267-.8192-.4134-1.389-.564-.5698-.1462-1.1483-.2261-1.7313-.2261-2.6859 0-4.0318 1.8056-4.0318 5.409zm12.8188 9.3926a21.4694 21.4694 0 01-1.7478.4279c-.662.1447-1.3532.2587-2.0763.357a33.3546 33.3546 0 01-2.2075.2464c-.743.0655-1.462.0976-2.1453.0976-1.6497 0-3.1203-.2398-4.4131-.7155-1.2929-.4763-2.3814-1.157-3.2683-2.046-.8915-.8885-1.5668-1.9675-2.0357-3.2288-.4703-1.2657-.7032-2.6881-.7032-4.2677 0-1.6026.2043-3.0512.6063-4.336.406-1.2926.9917-2.3835 1.7512-3.283.7629-.9094 1.6942-1.5947 2.7953-2.071 1.1038-.4718 2.3608-.7148 3.7817-.7148.788 0 1.4905.076 2.1127.2273.6229.1461 1.2497.3643 1.8832.6388V4.3391l5.6668-.9048v24.2813z" fill="#0A4A6E"></path> <path d="M108.0735 22.7013c.8331 1.3143 1.783 2.3089 2.8516 2.9863 1.068.6761 2.2593 1.0214 3.576 1.0352.9407 0 1.8043-.213 2.5897-.6368.7867-.4246 1.468-1.0228 2.0464-1.7913.5904-.8229 1.0434-1.782 1.3598-2.8762.3151-1.0954.473-2.3187.473-3.6722 0-2.3357-.5572-4.2062-1.6723-5.6136-1.0885-1.3398-2.526-2.01-4.3123-2.01a13.2512 13.2512 0 00-2.0351.359 8.6935 8.6935 0 00-1.9144.7364c-.605.3178-1.1622.7155-1.6723 1.1937-.5107.4777-.9406 1.0614-1.2901 1.752v8.5375zm0 14.9281h-2.5592V8.2318h2.5592v3.0453c.8192-1.1544 1.8002-2.0134 2.9418-2.5775 1.1416-.5634 2.5253-.8785 4.1518-.9447 2.6593 0 4.735.908 6.226 2.7268h-.0198c1.4912 1.7913 2.236 4.1997 2.236 7.2246 0 1.6589-.2175 3.1809-.654 4.5679-.4378 1.3863-1.058 2.597-1.864 3.6322-.8463 1.009-1.84 1.7913-2.9823 2.3488-1.1429.5576-2.3913.8354-3.7485.8354-1.3704.0262-2.5664-.2385-3.5866-.7954-1.0216-.5576-1.921-1.334-2.7004-2.3291v11.6633zM135.0007 10.1225c-2.2176 0-3.99.7365-5.32 2.2093-1.3167 1.4604-1.9747 3.5425-1.9747 6.2503 0 2.468.6448 4.4447 1.9343 5.9313 1.3021 1.4728 3.0626 2.2092 5.2794 2.2092 2.2567 0 4.0033-.7233 5.239-2.1699 1.2226-1.446 1.8335-3.4894 1.8335-6.1304 0-2.6928-.6043-4.7494-1.8129-6.1698-1.2086-1.4197-2.9359-2.13-5.1786-2.13m-.1413 18.968c-1.5045 0-2.855-.2418-4.0503-.726-1.196-.4842-2.2361-1.2239-3.123-2.2197-1.7472-1.963-2.6208-4.4978-2.6208-7.6026 0-1.6982.2248-3.2006.6752-4.5083.4511-1.3064 1.139-2.445 2.0663-3.4134 1.8262-1.9105 4.2447-2.8657 7.2549-2.8657 2.9412 0 5.2795.9552 7.0114 2.8657 1.7061 1.8974 2.5598 4.5115 2.5598 7.8417 0 3.1449-.8742 5.7-2.6201 7.663-1.7466 1.9772-4.1306 2.9652-7.1534 2.9652M146.7937 8.2316h2.5591v20.381h-2.5591V8.2317zm1.2504-4.1794c-.4975 0-.932-.1723-1.3002-.5175-.3701-.3453-.5552-.7954-.5552-1.3536 0-.2647.0544-.5104.1619-.7364.1068-.226.244-.418.4132-.5773.1678-.1592.3629-.281.5844-.3675a1.893 1.893 0 01.6959-.1304c.5094 0 .9525.1632 1.3293.4888.376.325.5645.7659.5645 1.3228 0 .2653-.0511.511-.1513.7364-.1008.226-.2361.422-.404.5877-.1678.1664-.3694.298-.6036.3977a1.8701 1.8701 0 01-.735.1493zM154.1136 28.6133h-2.5592V8.2322h2.5592v2.468c1.6921-1.9766 3.8493-2.9587 6.4688-2.9456 2.2706 0 4.0092.7396 5.219 2.219 1.2094 1.48 1.8136 3.5858 1.8136 6.3192v12.3205h-2.559v-11.803c0-2.2157-.4034-3.878-1.2094-4.9858-.8059-1.1073-1.9886-1.6753-3.5468-1.7022-1.3698.1468-2.5923.5216-3.6669 1.125-1.076.604-1.9144 1.4636-2.5193 2.578v14.788zM180.6171 28.1551c-.6036.2922-1.1621.5052-1.6723.6375-.5107.1323-.987.1985-1.4308.1985-3.1846 0-4.776-1.864-4.776-5.5932V10.6004h-3.566V8.232h3.566V2.5398h2.5592V8.232h5.2403v2.3684h-5.2403v12.5787c0 1.2219.185 2.1037.5545 2.6475.3695.5445 1.0036.8157 1.9045.8157.6573 0 1.3505-.2188 2.0749-.6565l.786 2.1693zM196.3402 16.5117c-.1214-2.0566-.652-3.6355-1.592-4.7362-.9406-1.1014-2.2302-1.653-3.8686-1.653-.8862 0-1.6935.15-2.4185.4488-.7264.298-1.377.7331-1.9542 1.3031-.524.557-.9585 1.2206-1.3001 1.9904-.3423.7699-.6017 1.6517-.7761 2.647h11.9095zm-12.031 2.3685c.0545 1.155.2223 2.2262.5042 3.2142.2826.9894.7058 1.8149 1.2703 2.4786 1.208 1.4328 2.847 2.1496 4.9166 2.1496 2.1227 0 4.1372-.7626 6.0443-2.2892l1.2305 2.01c-2.4862 1.7658-5.0387 2.647-7.6582 2.647-2.6871 0-4.849-.948-6.488-2.846-.82-.9553-1.4348-2.0862-1.8441-3.3932-.4106-1.3071-.6143-2.8232-.6143-4.5489 0-1.4584.2143-2.8153.6435-4.0693.4311-1.254 1.0686-2.3848 1.9157-3.3938.859-.9552 1.86-1.7087 3.0022-2.2583 1.141-.551 2.3847-.8262 3.7286-.8262 2.5923 0 4.587.9087 5.9846 2.7268 1.3705 1.7513 2.055 4.1597 2.055 7.2246v1.174h-14.6908zM15.294 28.438c-5.46 0-9.9023-4.3877-9.9023-9.7818 0-5.392 4.4423-9.779 9.9022-9.779 5.46 0 9.9016 4.387 9.9016 9.7797 0 5.3934-4.4417 9.781-9.9016 9.781m3.377-24.8867h-6.754c-6.571 0-11.9168 5.28-11.9168 11.7702v6.671c0 6.4901 5.3458 11.7708 11.9168 11.7708h6.754c6.571 0 11.9162-5.2807 11.9162-11.7708v-6.671c0-6.4901-5.3451-11.7702-11.9161-11.7702" fill="#E86824"></path> <path d="M15.294 22.1102c-1.9277 0-3.4958-1.5495-3.4958-3.4534 0-1.9033 1.5681-3.4528 3.4957-3.4528 1.9277 0 3.4958 1.5495 3.4958 3.4528 0 1.9039-1.5681 3.4534-3.4958 3.4534m0-10.644c-4.0138 0-7.2807 3.2261-7.2807 7.1906 0 3.9657 3.267 7.1911 7.2807 7.1911 4.0145 0 7.2801-3.2254 7.2801-7.1911 0-3.9645-3.2656-7.1906-7.28-7.1906" fill="#0A4A6E"></path></g></svg>